<svg width="16" height="16" viewBox="0 0 16 16" fill="none" xmlns="http://www.w3.org/2000/svg">
<path d="M12.6519 9.91133C12.3238 9.57026 11.9281 9.38791 11.5088 9.38791C11.0928 9.38791 10.6938 9.56689 10.3522 9.90796L9.28354 10.9717C9.19561 10.9244 9.10769 10.8805 9.02314 10.8366C8.90139 10.7758 8.78641 10.7184 8.68834 10.6576C7.68731 10.0228 6.7776 9.19542 5.90508 8.12493C5.48235 7.59138 5.19828 7.14224 4.99198 6.68636C5.2693 6.43308 5.52632 6.16968 5.77657 5.91641C5.87126 5.82186 5.96596 5.72393 6.06065 5.62937C6.77083 4.92021 6.77083 4.00169 6.06065 3.29253L5.1374 2.37062C5.03257 2.26594 4.92435 2.15788 4.82289 2.04981C4.61998 1.84044 4.40693 1.62432 4.18711 1.4217C3.85907 1.09752 3.46677 0.925293 3.05419 0.925293C2.64161 0.925293 2.24255 1.09752 1.90436 1.4217C1.90098 1.42508 1.90098 1.42508 1.8976 1.42846L0.747775 2.58675C0.3149 3.019 0.0680252 3.5458 0.0139158 4.15703C-0.0672484 5.14309 0.22359 6.06162 0.446791 6.66272C0.99465 8.13844 1.81306 9.5061 3.0339 10.9717C4.51515 12.7378 6.29738 14.1325 8.33324 15.1152C9.11107 15.4833 10.1493 15.9189 11.3093 15.9932C11.3803 15.9966 11.4547 16 11.5223 16C12.3035 16 12.9596 15.7197 13.4736 15.1625C13.477 15.1557 13.4838 15.1523 13.4872 15.1456C13.663 14.9328 13.8659 14.7404 14.079 14.5344C14.2244 14.3959 14.3732 14.2507 14.5186 14.0987C14.8534 13.7509 15.0293 13.3457 15.0293 12.9303C15.0293 12.5116 14.85 12.1097 14.5085 11.772L12.6519 9.91133ZM13.8626 13.4673C13.8592 13.4673 13.8592 13.4706 13.8626 13.4673C13.7307 13.6091 13.5954 13.7374 13.45 13.8792C13.2301 14.0886 13.0069 14.3081 12.7973 14.5546C12.4557 14.9193 12.0533 15.0916 11.5257 15.0916C11.475 15.0916 11.4209 15.0916 11.3701 15.0882C10.3657 15.024 9.43234 14.6323 8.7323 14.298C6.81818 13.3727 5.1374 12.0591 3.7407 10.3942C2.5875 9.00631 1.81644 7.72308 1.30578 6.34528C0.991268 5.50443 0.876285 4.8493 0.927013 4.23132C0.960831 3.83622 1.11301 3.50865 1.39371 3.22837L2.54691 2.07683C2.71262 1.92149 2.88848 1.83707 3.06095 1.83707C3.27401 1.83707 3.44648 1.96539 3.5547 2.07345C3.55808 2.07683 3.56147 2.08021 3.56485 2.08358C3.77114 2.27607 3.96729 2.47531 4.17358 2.68806C4.27842 2.79612 4.38664 2.90418 4.49485 3.01562L5.4181 3.93753C5.77657 4.29548 5.77657 4.62642 5.4181 4.98438C5.32002 5.08231 5.22533 5.18024 5.12726 5.27479C4.84318 5.56521 4.57264 5.83537 4.27842 6.09877C4.27165 6.10552 4.26489 6.1089 4.26151 6.11565C3.97067 6.40607 4.02478 6.68973 4.08565 6.88222C4.08903 6.89235 4.09242 6.90248 4.0958 6.91261C4.33591 7.49344 4.67409 8.04051 5.18813 8.69226L5.19151 8.69564C6.1249 9.8438 7.10902 10.7387 8.19459 11.4242C8.33324 11.512 8.47528 11.5829 8.61055 11.6505C8.7323 11.7112 8.84728 11.7687 8.94536 11.8294C8.95888 11.8362 8.97241 11.8463 8.98594 11.8531C9.10092 11.9105 9.20914 11.9375 9.32074 11.9375C9.60143 11.9375 9.77729 11.7619 9.83478 11.7045L10.9914 10.5496C11.1064 10.4348 11.289 10.2963 11.502 10.2963C11.7117 10.2963 11.8842 10.428 11.989 10.5428C11.9924 10.5462 11.9924 10.5462 11.9958 10.5496L13.8592 12.4103C14.2075 12.7547 14.2075 13.1093 13.8626 13.4673Z" fill="#AFAEAF"/>
<path d="M8.64777 3.80623C9.53381 3.95481 10.3387 4.37355 10.9812 5.01517C11.6238 5.65679 12.0398 6.4605 12.1919 7.34526C12.2291 7.56814 12.4219 7.72348 12.6417 7.72348C12.6688 7.72348 12.6925 7.7201 12.7195 7.71672C12.9698 7.6762 13.1355 7.43982 13.0949 7.18992C12.9123 6.11943 12.405 5.14349 11.6306 4.37017C10.8561 3.59686 9.87876 3.09031 8.80672 2.90796C8.55646 2.86744 8.32311 3.03291 8.27915 3.27942C8.23519 3.52594 8.39751 3.7657 8.64777 3.80623Z" fill="#AFAEAF"/>
<path d="M15.9929 7.058C15.692 5.29524 14.86 3.69119 13.5817 2.41471C12.3034 1.13823 10.697 0.307498 8.93166 0.00695025C8.68479 -0.03695 8.45144 0.131897 8.40748 0.378414C8.36689 0.628308 8.5326 0.861317 8.78286 0.905217C10.3588 1.172 11.7961 1.9183 12.9391 3.05633C14.0822 4.19773 14.8262 5.63294 15.0934 7.20659C15.1306 7.42947 15.3233 7.58481 15.5432 7.58481C15.5702 7.58481 15.5939 7.58143 15.6209 7.57805C15.8678 7.54091 16.0369 7.30452 15.9929 7.058Z" fill="#AFAEAF"/>
</svg>
