<svg width="12" height="14" viewBox="0 0 12 14" fill="none" xmlns="http://www.w3.org/2000/svg">
<path d="M0.00909519 13.4552L0.407505 10.5334C0.522224 9.69053 0.886073 8.89904 1.45419 8.25648C2.0223 7.61392 2.76984 7.14838 3.60462 6.91728C2.95234 6.42667 2.47321 5.7481 2.23454 4.97687C1.99586 4.20564 2.00963 3.3805 2.2739 2.61734C2.53818 1.85418 3.03969 1.19133 3.70799 0.721888C4.37629 0.252448 5.17782 0 6 0C6.82218 0 7.62371 0.252448 8.29201 0.721888C8.96031 1.19133 9.46182 1.85418 9.7261 2.61734C9.99037 3.3805 10.0041 4.20564 9.76546 4.97687C9.52679 5.7481 9.04766 6.42667 8.39538 6.91728C9.23016 7.14838 9.9777 7.61392 10.5458 8.25648C11.1139 8.89904 11.4778 9.69053 11.5925 10.5334L11.9958 13.4552C12.005 13.5235 11.9991 13.593 11.9785 13.659C11.9579 13.7249 11.9231 13.7857 11.8765 13.8374C11.8299 13.889 11.7725 13.9303 11.7082 13.9583C11.644 13.9864 11.5743 14.0006 11.504 14H0.49604C0.425697 14.0006 0.356045 13.9864 0.291781 13.9583C0.227519 13.9303 0.170142 13.889 0.123523 13.8374C0.0769024 13.7857 0.0421257 13.7249 0.0215368 13.659C0.000948906 13.593 -0.00497055 13.5235 0.00417709 13.4552H0.00909519ZM8.95364 3.87495C8.95364 3.30279 8.78056 2.74348 8.45628 2.26776C8.132 1.79203 7.67109 1.42124 7.13183 1.20229C6.59257 0.983331 5.99919 0.926042 5.42671 1.03766C4.85424 1.14929 4.32839 1.42481 3.91566 1.82938C3.50293 2.23395 3.22185 2.74941 3.10798 3.31058C2.99411 3.87174 3.05255 4.4534 3.27592 4.982C3.49929 5.5106 3.87755 5.96241 4.36287 6.28028C4.84819 6.59815 5.41877 6.76781 6.00246 6.76781C6.78516 6.76781 7.53581 6.46303 8.08926 5.92051C8.64272 5.37799 8.95364 4.64218 8.95364 3.87495ZM10.9457 13.0357L10.6235 10.6611C10.5133 9.85074 10.1068 9.10712 9.47938 8.56841C8.85201 8.0297 8.04648 7.73253 7.21245 7.7321H4.79493C3.96047 7.73194 3.15434 8.02885 2.52646 8.56761C1.89857 9.10638 1.49166 9.85033 1.3814 10.6611L1.05677 13.0357H10.9457Z" fill="#AFAEAF"/>
</svg>
