<svg width="26" height="26" viewBox="0 0 26 26" fill="none" xmlns="http://www.w3.org/2000/svg">
<g clip-path="url(#clip0)">
<path d="M22.2083 23.8333H14.6249V23.2916C14.6249 22.9922 14.3827 22.7499 14.0833 22.7499H13.5416V21.6392C19.2625 21.3542 23.8333 16.6241 23.8333 10.8333C23.8333 4.85966 18.9731 0 12.9999 0C7.0268 0 2.16663 4.85966 2.16663 10.8333C2.16663 16.6242 6.73739 21.3542 12.4583 21.6392V22.75H11.9166C11.6172 22.75 11.3749 22.9923 11.3749 23.2917V23.8334H3.79163C3.49222 23.8333 3.24994 24.0756 3.24994 24.375C3.24994 24.6744 3.49222 24.9167 3.79163 24.9167H11.3749V25.4584C11.3749 25.7578 11.6172 26 11.9166 26H14.0833C14.3827 26 14.625 25.7578 14.625 25.4584V24.9167H22.2083C22.5077 24.9167 22.75 24.6744 22.75 24.375C22.7499 24.0756 22.5077 23.8333 22.2083 23.8333ZM15.4259 20.2655C16.2637 19.2168 16.9377 17.6334 17.3652 15.7083H21.4307C20.1354 17.9396 17.9838 19.6068 15.4259 20.2655ZM16.4759 14.625H9.52402C9.32526 13.4803 9.20831 12.2086 9.20831 10.8333C9.20831 9.45806 9.32526 8.18634 9.52402 7.04163H16.4759C16.6746 8.18634 16.7916 9.45806 16.7916 10.8333C16.7916 12.2086 16.6746 13.4803 16.4759 14.625ZM22.7499 10.8333C22.7499 12.1774 22.4766 13.4589 21.9825 14.625H17.5726C17.7651 13.4482 17.8749 12.1759 17.8749 10.8333C17.8749 9.49076 17.7651 8.21849 17.5726 7.04163H21.9825C22.4766 8.20777 22.7499 9.48924 22.7499 10.8333ZM21.4307 5.95832H17.3652C16.9377 4.03315 16.2637 2.44984 15.4259 1.40116C17.9838 2.05989 20.1354 3.72709 21.4307 5.95832ZM12.9999 1.08332C14.2233 1.08332 15.541 2.94932 16.2558 5.95832H9.7441C10.4588 2.94932 11.7766 1.08332 12.9999 1.08332ZM10.574 1.40116C9.73618 2.44984 9.06216 4.0331 8.63463 5.95832H4.56914C5.86452 3.72709 8.01612 2.05989 10.574 1.40116ZM3.24994 10.8333C3.24994 9.48919 3.52335 8.20777 4.0175 7.04163H8.42729C8.23483 8.21844 8.12499 9.49076 8.12499 10.8333C8.12499 12.1759 8.23483 13.4481 8.42729 14.625H4.0175C3.52335 13.4589 3.24994 12.1774 3.24994 10.8333ZM4.56914 15.7083H8.63463C9.06216 17.6334 9.73623 19.2168 10.574 20.2655C8.01612 19.6068 5.86452 17.9396 4.56914 15.7083ZM9.7441 15.7083H16.2557C15.541 18.7173 14.2233 20.5833 12.9999 20.5833C11.7765 20.5833 10.4588 18.7173 9.7441 15.7083ZM13.5416 24.9167H12.4583V23.8334H13.5416V24.9167Z" fill="#FC3F3F"/>
</g>
<defs>
<clipPath id="clip0">
<rect width="26" height="26" fill="white"/>
</clipPath>
</defs>
</svg>
