<svg width="34" height="34" viewBox="0 0 34 34" fill="none" xmlns="http://www.w3.org/2000/svg">
<path d="M18.8478 1.5H13.9171C13.645 1.5 13.4241 1.724 13.4241 1.99998C13.4241 2.27596 13.645 2.49996 13.9171 2.49996H18.8478C19.12 2.49996 19.3409 2.27596 19.3409 1.99998C19.3409 1.724 19.12 1.5 18.8478 1.5Z" fill="#FC3F3F"/>
<path d="M22.2993 1.5H21.8063C21.5341 1.5 21.3132 1.724 21.3132 1.99998C21.3132 2.27596 21.5341 2.49996 21.8063 2.49996H22.2993C22.5715 2.49996 22.7924 2.27596 22.7924 1.99998C22.7924 1.724 22.5715 1.5 22.2993 1.5Z" fill="#FC3F3F"/>
<path d="M16.9948 25.5001H15.7705C15.0206 25.5001 14.4102 26.1191 14.4102 26.8796V27.1211C14.4102 27.8816 15.0206 28.5001 15.7701 28.5001H16.9943C17.7443 28.5001 18.3547 27.8816 18.3547 27.1211V26.8796C18.3547 26.1191 17.7443 25.5001 16.9948 25.5001ZM17.3686 27.1211C17.3686 27.3301 17.201 27.5001 16.9949 27.5001H15.7705C15.5639 27.5001 15.3963 27.3301 15.3963 27.1211V26.8796C15.3963 26.6701 15.5639 26.5001 15.7705 26.5001H16.9943C17.201 26.5001 17.3686 26.6701 17.3686 26.8796V27.1211Z" fill="#FC3F3F"/>
<path d="M22.9826 0H9.78246C8.79976 0 8 0.810996 8 1.8075V28.1925C8 29.189 8.79976 30 9.78246 30H22.982C23.9647 30 24.7645 29.189 24.7645 28.193V1.8075C24.7646 0.810996 23.9648 0 22.9826 0ZM23.7784 28.1925C23.7784 28.6375 23.4214 29 22.9826 29H9.78246C9.34315 29 8.98617 28.6375 8.98617 28.193V1.8075C8.98617 1.36248 9.34315 1.00002 9.78246 1.00002H22.982C23.4213 1.00002 23.7783 1.36254 23.7783 1.8075V28.1925H23.7784Z" fill="#FC3F3F"/>
<path d="M24.2716 3.00012H8.4933C8.22115 3.00012 8.00024 3.22413 8.00024 3.5001V24.5001C8.00024 24.7761 8.22115 25.0001 8.4933 25.0001H24.2717C24.5438 25.0001 24.7647 24.7761 24.7647 24.5001V3.5001C24.7647 3.22413 24.5438 3.00012 24.2716 3.00012ZM23.7786 24.0001H8.98635V4.00014H23.7786V24.0001Z" fill="#FC3F3F"/>
</svg>
