<svg width="27" height="27" viewBox="0 0 27 27" fill="none" xmlns="http://www.w3.org/2000/svg">
<path d="M24.8225 18.7258H4.35483V6.96769C4.35483 6.24742 3.76866 5.66125 3.04839 5.66125C2.32812 5.66125 1.74195 6.24742 1.74195 6.96769V18.7697C0.74943 18.9722 0 19.8519 0 20.9032V23.5161C0 24.4066 0.53865 25.1718 1.30644 25.5089V26.1289C1.30644 26.6093 1.69704 26.9999 2.17737 26.9999H3.91932C4.39965 26.9999 4.79025 26.6093 4.79025 26.1289V25.6934H21.7742V26.1289C21.7742 26.6093 22.1648 26.9999 22.6451 26.9999H24.387C24.8674 26.9999 25.258 26.6093 25.258 26.1289V25.6495C26.2506 25.447 27 24.5679 27 23.5161V20.9032C27 19.7026 26.0232 18.7258 24.8225 18.7258ZM3.04839 6.53227C3.28833 6.53227 3.4839 6.72784 3.4839 6.96778V18.7258H2.61297V6.96769H2.61288C2.61288 6.72775 2.80845 6.53227 3.04839 6.53227ZM3.91941 26.129H3.91932H2.17746V25.6935H3.91941V26.129ZM24.3871 26.129H22.6452V25.6935H24.3871V26.129ZM26.1291 23.5161C26.1291 24.2363 25.5429 24.8225 24.8226 24.8225H21.7742H4.79034H2.17746C1.45719 24.8225 0.87102 24.2363 0.87102 23.5161V20.9032C0.87102 20.1829 1.45719 19.5968 2.17746 19.5968H4.35492H24.8226C25.5429 19.5968 26.1291 20.1829 26.1291 20.9032V23.5161Z" fill="#FC3F3F"/>
<path d="M8.70965 20.4678H2.61287C2.13254 20.4678 1.74194 20.8584 1.74194 21.3387V23.0807C1.74194 23.561 2.13254 23.9516 2.61287 23.9516H8.70965C9.18998 23.9516 9.58058 23.561 9.58058 23.0807V21.3387C9.58067 20.8585 9.18998 20.4678 8.70965 20.4678ZM2.61287 23.0807V21.3388H8.70965L8.7101 23.0807H2.61287Z" fill="#FC3F3F"/>
<path d="M25.258 21.774H24.3871V22.645H25.258V21.774Z" fill="#FC3F3F"/>
<path d="M23.5161 21.774H22.6451V22.645H23.5161V21.774Z" fill="#FC3F3F"/>
<path d="M21.7741 21.774H20.9032V22.645H21.7741V21.774Z" fill="#FC3F3F"/>
<path d="M20.0322 21.774H19.1613V22.645H20.0322V21.774Z" fill="#FC3F3F"/>
<path d="M8.70964 11.3226C9.42991 11.3226 10.0161 10.7364 10.0161 10.0162C10.0161 9.29589 9.42991 8.70972 8.70964 8.70972C7.98937 8.70972 7.4032 9.29589 7.4032 10.0162C7.4032 10.7364 7.98937 11.3226 8.70964 11.3226ZM8.70964 9.58083C8.94958 9.58083 9.14515 9.7764 9.14515 10.0163C9.14515 10.2563 8.94958 10.4518 8.70964 10.4518C8.4697 10.4518 8.27413 10.2563 8.27413 10.0163C8.27413 9.77631 8.4697 9.58083 8.70964 9.58083Z" fill="#FC3F3F"/>
<path d="M11.3226 10.016H12.1935C12.1935 8.09505 10.6306 6.5321 8.70959 6.5321V7.40304C10.1507 7.40313 11.3226 8.57502 11.3226 10.016Z" fill="#FC3F3F"/>
<path d="M13.5001 10.0161H14.371C14.371 6.89457 11.8313 4.35486 8.70972 4.35486V5.22579C11.3509 5.22588 13.5001 7.37499 13.5001 10.0161Z" fill="#FC3F3F"/>
<path d="M15.6775 10.016H16.5485C16.5485 5.69382 13.0319 2.17725 8.70972 2.17725V3.04818C12.5516 3.04827 15.6775 6.17415 15.6775 10.016Z" fill="#FC3F3F"/>
<path d="M17.8549 10.0161H18.7258C18.7259 4.49343 14.2326 0 8.70972 0V0.87093C13.7526 0.87093 17.8549 4.97322 17.8549 10.0161Z" fill="#FC3F3F"/>
</svg>
