<svg width="27" height="27" viewBox="0 0 27 27" fill="none" xmlns="http://www.w3.org/2000/svg">
<path d="M9.37308 1.57834C9.27499 1.48025 9.13894 1.42383 9.00024 1.42383C8.86103 1.42383 8.7255 1.48025 8.62741 1.57834C8.52933 1.67643 8.4729 1.81248 8.4729 1.95117C8.4729 2.08986 8.52933 2.22592 8.62741 2.324C8.7255 2.42209 8.86103 2.47852 9.00024 2.47852C9.13894 2.47852 9.27499 2.42209 9.37308 2.324C9.47116 2.22592 9.52759 2.08986 9.52759 1.95117C9.52759 1.81248 9.47116 1.67643 9.37308 1.57834Z" fill="#FC3F3F"/>
<path d="M26.4727 1.42383H11.25C10.9587 1.42383 10.7226 1.65992 10.7226 1.95117C10.7226 2.24242 10.9587 2.47852 11.25 2.47852H25.9453V6.79488L16.3262 16.4138C16.1203 16.6198 16.1203 16.9537 16.3262 17.1597C16.4292 17.2626 16.5642 17.3141 16.6991 17.3141C16.8341 17.3141 16.9691 17.2626 17.072 17.1597L25.9453 8.28642V19.5645H1.05469V2.47852H6.69727C6.98852 2.47852 7.22461 2.24242 7.22461 1.95117C7.22461 1.65992 6.98852 1.42383 6.69727 1.42383H0.527344C0.236092 1.42383 0 1.65992 0 1.95117V20.0918C0 20.383 0.236092 20.6191 0.527344 20.6191H9.59766V22.4121H6.53906C6.24781 22.4121 6.01172 22.6482 6.01172 22.9395V24.5215H3.01398C2.72273 24.5215 2.48664 24.7576 2.48664 25.0488C2.48664 25.3401 2.72273 25.5762 3.01398 25.5762H22.098C22.3892 25.5762 22.6253 25.3401 22.6253 25.0488C22.6253 24.7576 22.3892 24.5215 22.098 24.5215H20.9883V22.9395C20.9883 22.6482 20.7522 22.4121 20.4609 22.4121H17.4023V20.6191H26.4727C26.7639 20.6191 27 20.383 27 20.0918V1.95117C27 1.65992 26.7639 1.42383 26.4727 1.42383ZM10.6523 20.6191H16.3477V22.4121H10.6523V20.6191ZM19.9336 23.4668V24.5215H7.06641V23.4668H10.125H16.875H19.9336Z" fill="#FC3F3F"/>
<path d="M9.35285 6.06021C9.14693 5.85423 8.81307 5.85433 8.60703 6.06021L3.93972 10.7275C3.7338 10.9334 3.7338 11.2674 3.93972 11.4733C4.04271 11.5763 4.17766 11.6278 4.31261 11.6278C4.44756 11.6278 4.58256 11.5763 4.68549 11.4733L9.35285 6.80603C9.55878 6.60005 9.55883 6.26614 9.35285 6.06021Z" fill="#FC3F3F"/>
<path d="M3.1962 12.217C3.09811 12.1189 2.96205 12.0625 2.82336 12.0625C2.68467 12.0625 2.54862 12.1189 2.45053 12.217C2.35245 12.3151 2.29602 12.4506 2.29602 12.5898C2.29602 12.7285 2.35245 12.8646 2.45053 12.9627C2.54862 13.0608 2.68467 13.1172 2.82336 13.1172C2.96205 13.1172 3.09811 13.0608 3.1962 12.9627C3.29428 12.8646 3.35071 12.7285 3.35071 12.5898C3.35071 12.4512 3.29428 12.3151 3.1962 12.217Z" fill="#FC3F3F"/>
<path d="M24.359 24.676C24.261 24.5779 24.1249 24.5215 23.9862 24.5215C23.847 24.5215 23.7115 24.5779 23.6134 24.676C23.5148 24.7741 23.4589 24.9101 23.4589 25.0488C23.4589 25.1875 23.5148 25.3236 23.6134 25.4217C23.7109 25.5197 23.847 25.5762 23.9862 25.5762C24.1249 25.5762 24.261 25.5197 24.359 25.4217C24.4571 25.3236 24.5135 25.1875 24.5135 25.0488C24.5135 24.9101 24.4571 24.7741 24.359 24.676Z" fill="#FC3F3F"/>
<path d="M12.4296 8.5426H9.47644C9.18519 8.5426 8.9491 8.77869 8.9491 9.06995C8.9491 9.3612 9.18519 9.59729 9.47644 9.59729H10.4257V13.5C10.4257 13.7912 10.6618 14.0273 10.953 14.0273C11.2443 14.0273 11.4804 13.7912 11.4804 13.5V9.59729H12.4296C12.7208 9.59729 12.9569 9.3612 12.9569 9.06995C12.9569 8.77869 12.7208 8.5426 12.4296 8.5426Z" fill="#FC3F3F"/>
<path d="M17.6902 8.56978C17.4139 8.47776 17.1152 8.62695 17.0232 8.90333L16.0469 11.8324L15.0706 8.90333C14.9785 8.62705 14.6798 8.47776 14.4036 8.56978C14.1273 8.66186 13.978 8.96049 14.07 9.23682L15.5466 13.6668C15.6184 13.8822 15.8199 14.0274 16.0469 14.0274C16.2739 14.0274 16.4754 13.8822 16.5472 13.6668L18.0237 9.23682C18.1159 8.96049 17.9665 8.66186 17.6902 8.56978Z" fill="#FC3F3F"/>
</svg>
