<svg width="30" height="30" viewBox="0 0 30 30" fill="none" xmlns="http://www.w3.org/2000/svg">
<g clip-path="url(#clip0)">
<path d="M25.625 27.5H16.875V26.875C16.875 26.5295 16.5954 26.2499 16.25 26.2499H15.6249V24.9683C22.226 24.6394 27.5 19.1817 27.5 12.4999C27.5 5.6073 21.8921 0 15 0C8.10789 0 2.5 5.6073 2.5 12.5C2.5 19.1817 7.77396 24.6395 14.375 24.9683V26.25H13.75C13.4045 26.25 13.125 26.5296 13.125 26.875V27.5H4.375C4.02953 27.5 3.74998 27.7795 3.74998 28.125C3.74998 28.4705 4.02953 28.75 4.375 28.75H13.125V29.375C13.125 29.7205 13.4045 30.0001 13.75 30.0001H16.25C16.5955 30.0001 16.875 29.7205 16.875 29.375V28.75H25.625C25.9705 28.75 26.25 28.4705 26.25 28.125C26.25 27.7795 25.9704 27.5 25.625 27.5ZM17.7991 23.3832C18.7659 22.1732 19.5436 20.3463 20.0369 18.125H24.7278C23.2332 20.6995 20.7505 22.6232 17.7991 23.3832ZM19.0107 16.875H10.9893C10.76 15.5542 10.625 14.0868 10.625 12.5C10.625 10.9131 10.76 9.44578 10.9893 8.12496H19.0107C19.24 9.44578 19.3749 10.9131 19.3749 12.5C19.3749 14.0868 19.24 15.5542 19.0107 16.875ZM26.25 12.5C26.25 14.0509 25.9346 15.5295 25.3645 16.875H20.2762C20.4982 15.5171 20.625 14.0491 20.625 12.5C20.625 10.9509 20.4982 9.48287 20.2762 8.12496H25.3645C25.9346 9.47051 26.25 10.9491 26.25 12.5ZM24.7278 6.87498H20.0369C19.5436 4.65363 18.7658 2.82674 17.7991 1.61672C20.7505 2.3768 23.2332 4.30049 24.7278 6.87498ZM15 1.24998C16.4116 1.24998 17.932 3.40307 18.7567 6.87498H11.2432C12.0679 3.40307 13.5884 1.24998 15 1.24998ZM12.2008 1.61672C11.2341 2.82674 10.4564 4.65357 9.96309 6.87498H5.27213C6.7668 4.30049 9.24941 2.3768 12.2008 1.61672ZM3.74998 12.5C3.74998 10.9491 4.06545 9.47051 4.63562 8.12496H9.72385C9.50178 9.48281 9.37504 10.9509 9.37504 12.5C9.37504 14.0491 9.50178 15.5171 9.72385 16.875H4.63562C4.06545 15.5295 3.74998 14.0509 3.74998 12.5ZM5.27213 18.125H9.96309C10.4564 20.3463 11.2342 22.1732 12.2008 23.3832C9.24941 22.6232 6.7668 20.6995 5.27213 18.125ZM11.2432 18.125H18.7567C17.932 21.5969 16.4116 23.75 14.9999 23.75C13.5883 23.75 12.0679 21.5969 11.2432 18.125ZM15.625 28.75H14.375V27.5H15.625V28.75Z" fill="#3F4DF3"/>
</g>
<defs>
<clipPath id="clip0">
<rect width="30" height="30" fill="white"/>
</clipPath>
</defs>
</svg>
