<svg width="37" height="37" viewBox="0 0 37 37" fill="none" xmlns="http://www.w3.org/2000/svg">
<path d="M3.85414 21.7693H33.1459C35.2702 21.7693 37 23.499 37 25.6234V28.7068C37 30.8312 35.2702 32.5609 33.1459 32.5609H3.85422C1.72982 32.5609 7.24792e-05 30.8327 7.24792e-05 28.7068V25.6234C0 23.499 1.72975 21.7693 3.85414 21.7693ZM1.54164 28.7068C1.54164 29.9818 2.57916 31.0193 3.85414 31.0193H33.1459C34.4208 31.0193 35.4584 29.9818 35.4584 28.7068V25.6234C35.4584 24.3484 34.4208 23.3109 33.1459 23.3109H3.85422C2.57924 23.3109 1.54172 24.3484 1.54172 25.6234V28.7068H1.54164Z" fill="#3E4DF0"/>
<path d="M10.0208 10.9775C10.4463 10.9775 10.7916 11.3229 10.7916 11.7484V22.54C10.7916 22.9655 10.4463 23.3109 10.0208 23.3109C9.59526 23.3109 9.2499 22.9671 9.2499 22.54V11.7483C9.2499 11.3228 9.59526 10.9775 10.0208 10.9775Z" fill="#3E4DF0"/>
<path d="M31.6041 27.936C31.1784 27.936 30.8333 27.5909 30.8333 27.1651C30.8333 26.7394 31.1784 26.3943 31.6041 26.3943C32.0299 26.3943 32.375 26.7394 32.375 27.1651C32.375 27.5909 32.0299 27.936 31.6041 27.936Z" fill="#3E4DF0"/>
<path d="M26.9791 27.936C26.5534 27.936 26.2083 27.5909 26.2083 27.1651C26.2083 26.7394 26.5534 26.3943 26.9791 26.3943C27.4049 26.3943 27.75 26.7394 27.75 27.1651C27.75 27.5909 27.4049 27.936 26.9791 27.936Z" fill="#3E4DF0"/>
<path d="M22.3541 27.936C21.9284 27.936 21.5833 27.5909 21.5833 27.1651C21.5833 26.7394 21.9284 26.3943 22.3541 26.3943C22.7799 26.3943 23.125 26.7394 23.125 27.1651C23.125 27.5909 22.7799 27.936 22.3541 27.936Z" fill="#3E4DF0"/>
<path d="M17.7291 27.936C17.3034 27.936 16.9583 27.5909 16.9583 27.1651C16.9583 26.7394 17.3034 26.3943 17.7291 26.3943C18.1549 26.3943 18.5 26.7394 18.5 27.1651C18.5 27.5909 18.1549 27.936 17.7291 27.936Z" fill="#3E4DF0"/>
<path d="M5.39586 26.3943H13.1041C13.5296 26.3943 13.875 26.7396 13.875 27.1651C13.875 27.5906 13.5296 27.936 13.1041 27.936H5.39578C4.97028 27.936 4.62493 27.5906 4.62493 27.1651C4.625 26.7396 4.97036 26.3943 5.39586 26.3943Z" fill="#3E4DF0"/>
<path d="M12.3334 11.7485C12.3334 11.1303 12.0929 10.5507 11.6566 10.1128C11.356 9.81219 11.356 9.32346 11.6566 9.02283C11.9572 8.72221 12.446 8.72221 12.7466 9.02283C13.4741 9.75055 13.875 10.7188 13.875 11.7485C13.875 12.7784 13.4741 13.7465 12.7465 14.4742C12.5954 14.6237 12.3981 14.6993 12.2008 14.6993C12.0034 14.6993 11.8061 14.6253 11.6565 14.4742C11.3559 14.1736 11.3559 13.6848 11.6565 13.3842C12.0929 12.9464 12.3334 12.3668 12.3334 11.7485Z" fill="#3E4DF0"/>
<path d="M7.29502 9.02283C7.59565 8.72221 8.08438 8.72221 8.385 9.02283C8.68563 9.32346 8.68563 9.81219 8.385 10.1128C7.94874 10.5507 7.70823 11.1303 7.70823 11.7485C7.70823 12.3668 7.94873 12.9479 8.38659 13.3843C8.68722 13.6849 8.68722 14.1736 8.38659 14.4743C8.23548 14.6238 8.0382 14.6994 7.84084 14.6994C7.64349 14.6994 7.4462 14.6254 7.29509 14.4743C6.56745 13.7466 6.16659 12.7784 6.16659 11.7486C6.16652 10.7187 6.56738 9.75047 7.29502 9.02283Z" fill="#3E4DF0"/>
<path d="M13.838 7.93435C13.5374 7.63372 13.5374 7.14499 13.838 6.84437C14.1386 6.54374 14.6273 6.54374 14.928 6.84437C17.6321 9.54999 17.6321 13.9499 14.928 16.6555C14.7769 16.805 14.5796 16.8806 14.3822 16.8806C14.1849 16.8806 13.9876 16.8051 13.838 16.6555C13.5374 16.3549 13.5374 15.8661 13.838 15.5655C15.9408 13.4612 15.9408 10.0387 13.838 7.93435Z" fill="#3E4DF0"/>
<path d="M5.11533 6.84437C5.41596 6.54374 5.90469 6.54374 6.20532 6.84437C6.50594 7.14499 6.50594 7.63372 6.20532 7.93435C4.10246 10.0387 4.10246 13.4612 6.20532 15.5656C6.50594 15.8662 6.50594 16.355 6.20532 16.6556C6.05421 16.8051 5.85692 16.8807 5.65957 16.8807C5.46221 16.8807 5.26644 16.8052 5.11533 16.6556C2.41123 13.9499 2.41123 9.54999 5.11533 6.84437Z" fill="#3E4DF0"/>
<path d="M16.0179 5.75442C15.7173 5.45379 15.7173 4.96506 16.0179 4.66443C16.3185 4.36381 16.8073 4.36381 17.1079 4.66443C21.0145 8.57104 21.0145 14.9288 17.1079 18.8354C16.9568 18.985 16.7595 19.0605 16.5621 19.0605C16.3648 19.0605 16.1675 18.985 16.0179 18.8354C15.7173 18.5348 15.7173 18.0461 16.0179 17.7455C19.3248 14.4402 19.3248 9.06129 16.0179 5.75442Z" fill="#3E4DF0"/>
<path d="M2.9354 4.66443C3.23603 4.36381 3.72476 4.36381 4.02539 4.66443C4.32601 4.96506 4.32601 5.45379 4.02539 5.75442C0.718508 9.05977 0.718508 14.4387 4.02539 17.7455C4.32601 18.0462 4.32601 18.5349 4.02539 18.8355C3.87428 18.985 3.67699 19.0606 3.47964 19.0606C3.28228 19.0606 3.08499 18.9851 2.9354 18.8355C-0.971209 14.9288 -0.971209 8.57097 2.9354 4.66443Z" fill="#3E4DF0"/>
</svg>
