<svg width="38" height="38" viewBox="0 0 38 38" fill="none" xmlns="http://www.w3.org/2000/svg">
<g clip-path="url(#clip0)">
<path d="M27.862 37.044L24.8581 26.8041C24.858 26.8035 24.8577 26.8029 24.8576 26.8023L23.7857 23.1483C23.7856 23.148 23.7854 23.1476 23.7854 23.1473L22.3041 18.098C22.3038 18.097 22.3036 18.096 22.3033 18.0951L19.9465 10.0614C20.984 9.676 21.7252 8.6762 21.7252 7.50629C21.7252 6.0038 20.5028 4.78149 19.0004 4.78149C17.498 4.78149 16.2756 6.00388 16.2756 7.50629C16.2756 8.6762 17.0168 9.67607 18.0543 10.0614L13.1432 26.8024C13.1431 26.803 13.1428 26.8036 13.1427 26.8043L10.1387 37.0441C10.0228 37.4392 10.2492 37.8536 10.6443 37.9696C11.04 38.0854 11.4538 37.8592 11.5698 37.4639L12.0266 35.907L19.0005 31.3004L25.9744 35.907L26.4311 37.4639C26.5265 37.7891 26.8239 37.9999 27.1464 37.9999C27.2159 37.9999 27.2866 37.9902 27.3566 37.9696C27.7516 37.8536 27.978 37.4392 27.862 37.044ZM17.767 7.50614C17.767 6.82607 18.3203 6.27277 19.0003 6.27277C19.6804 6.27277 20.2337 6.82607 20.2337 7.50614C20.2337 8.1862 19.6804 8.73951 19.0003 8.73951C18.3203 8.73951 17.767 8.18628 17.767 7.50614ZM19.0003 12.1345L20.5954 17.5721H17.4051L19.0003 12.1345ZM16.9676 19.0636H21.033L22.0774 22.6237H15.9233L16.9676 19.0636ZM12.6769 33.6898L14.2905 28.1893L17.6474 30.4066L12.6769 33.6898ZM14.7298 26.6921L15.4858 24.1151H22.515L23.2709 26.6921L19.0003 29.513L14.7298 26.6921ZM20.3533 30.4067L23.7102 28.1894L25.3238 33.6899L20.3533 30.4067Z" fill="#3F4DF3"/>
<path d="M15.4553 3.96123C15.7465 3.67 15.7465 3.19782 15.4553 2.90666C15.164 2.61542 14.6919 2.61542 14.4006 2.90666C11.8647 5.44286 11.8647 9.56964 14.4007 12.1058C14.5463 12.2515 14.7371 12.3243 14.928 12.3243C15.1188 12.3243 15.3097 12.2514 15.4553 12.1058C15.7465 11.8146 15.7465 11.3424 15.4553 11.0513C13.5005 9.09657 13.5005 5.91593 15.4553 3.96123Z" fill="#3F4DF3"/>
<path d="M23.6 2.90666C23.3087 2.61542 22.8367 2.61542 22.5453 2.90666C22.2541 3.19789 22.2541 3.67007 22.5453 3.96123C24.5 5.91593 24.5 9.09657 22.5453 11.0513C22.2542 11.3424 22.2542 11.8146 22.5454 12.1058C22.691 12.2514 22.8818 12.3242 23.0727 12.3242C23.2636 12.3242 23.4544 12.2513 23.6001 12.1058C26.1361 9.56957 26.1361 5.44279 23.6 2.90666Z" fill="#3F4DF3"/>
<path d="M12.7671 1.273C13.0583 0.981766 13.0583 0.509586 12.7671 0.218426C12.4758 -0.0728086 12.0037 -0.0728086 11.7124 0.218426C9.76581 2.16511 8.69373 4.75327 8.69373 7.50634C8.69373 10.2593 9.76581 12.8476 11.7124 14.7942C11.8581 14.9399 12.0489 15.0127 12.2398 15.0127C12.4308 15.0127 12.6215 14.9398 12.7671 14.7942C13.0584 14.503 13.0584 14.0308 12.7671 13.7397C9.32993 10.3025 9.32993 4.71007 12.7671 1.273Z" fill="#3F4DF3"/>
<path d="M27.7818 2.10645C27.5658 1.75584 27.1064 1.64659 26.7557 1.86256C26.4052 2.07862 26.296 2.53796 26.5119 2.88856C28.6605 6.3764 28.1348 10.8386 25.2337 13.7396C24.9425 14.0309 24.9425 14.5031 25.2337 14.7943C25.3793 14.9399 25.5701 15.0127 25.761 15.0127C25.9518 15.0127 26.1426 14.9399 26.2883 14.7943C27.9376 13.1449 28.9873 10.9623 29.2439 8.64853C29.4965 6.37061 28.9773 4.04719 27.7818 2.10645Z" fill="#3F4DF3"/>
<path d="M25.7608 0C24.8012 0 24.7996 1.49143 25.7608 1.49143C26.7205 1.49143 26.722 0 25.7608 0Z" fill="#3F4DF3"/>
</g>
<defs>
<clipPath id="clip0">
<rect width="38" height="38" fill="white"/>
</clipPath>
</defs>
</svg>
