<svg width="15" height="15" viewBox="0 0 15 15" fill="none" xmlns="http://www.w3.org/2000/svg">
<path d="M10.8605 0H4.13937C1.85692 0 0 1.85701 0 4.13946V10.8605C0 13.1431 1.85692 15 4.13937 15H10.8605C13.1431 15 15 13.143 15 10.8605V4.13946C15.0001 1.85701 13.1431 0 10.8605 0ZM13.6692 10.8605C13.6692 12.4092 12.4092 13.6691 10.8605 13.6691H4.13937C2.59077 13.6692 1.33087 12.4092 1.33087 10.8605V4.13946C1.33087 2.59085 2.59077 1.33087 4.13937 1.33087H10.8605C12.4091 1.33087 13.6691 2.59085 13.6691 4.13946V10.8605H13.6692Z" fill="#FC3F3F"/>
<path d="M7.50001 3.63501C5.36875 3.63501 3.63489 5.36887 3.63489 7.50013C3.63489 9.6313 5.36875 11.3651 7.50001 11.3651C9.63127 11.3651 11.3651 9.6313 11.3651 7.50013C11.3651 5.36887 9.63127 3.63501 7.50001 3.63501ZM7.50001 10.0341C6.10268 10.0341 4.96576 8.89737 4.96576 7.50004C4.96576 6.10262 6.10259 4.96579 7.50001 4.96579C8.89742 4.96579 10.0343 6.10262 10.0343 7.50004C10.0343 8.89737 8.89734 10.0341 7.50001 10.0341Z" fill="#FC3F3F"/>
<path d="M11.5271 2.50635C11.2707 2.50635 11.0188 2.61016 10.8377 2.79204C10.6558 2.97304 10.5511 3.22502 10.5511 3.48232C10.5511 3.73882 10.6558 3.99071 10.8377 4.1726C11.0187 4.3536 11.2707 4.45829 11.5271 4.45829C11.7844 4.45829 12.0355 4.3536 12.2174 4.1726C12.3993 3.99071 12.5031 3.73874 12.5031 3.48232C12.5031 3.22502 12.3993 2.97304 12.2174 2.79204C12.0364 2.61016 11.7844 2.50635 11.5271 2.50635Z" fill="#FC3F3F"/>
</svg>
