<svg width="171" height="55" viewBox="0 0 171 55" fill="none" xmlns="http://www.w3.org/2000/svg">
<path d="M43.7273 15L30.9455 31.6667L40.7 44.3333L35.3182 48.3333C29.6 41 20.1818 28.3333 20.1818 28.3333L0 55H74L43.7273 15Z" fill="#FF5958"/>
<path d="M48.1138 6.78965L45.2677 18.1487L36.4104 6.38873L48.1138 6.78965Z" fill="#FC3F3F"/>
<path d="M72.1028 54.5L34 3H35.6601L74 54.5H72.1028Z" fill="#FC3F3F" stroke="#FC3F3F"/>
<path d="M71 52H169.5C170.328 52 171 52.6716 171 53.5V53.5C171 54.3284 170.328 55 169.5 55H74C72.3431 55 71 53.6569 71 52V52Z" fill="#FF5958"/>
<path d="M75 23.198C75.901 24.456 77.601 25.323 79.709 25.323C83.347 25.323 86.084 22.688 86.084 18.982C86.084 15.259 83.313 12.658 79.709 12.658C77.907 12.658 76.139 13.287 75.221 14.409L76.683 15.786C77.193 15.106 78.315 14.545 79.726 14.545C81.868 14.545 83.364 16.041 83.67 17.894H78.519V19.696H83.704C83.568 21.821 81.987 23.385 79.726 23.385C78.434 23.385 77.312 22.875 76.615 21.957L75 23.198ZM88.1629 25H92.4979C94.7759 25 97.0539 24.116 97.0539 21.498C97.0539 19.883 95.9659 18.863 94.4529 18.659V18.625C95.6939 18.251 96.5439 17.35 96.5439 15.99C96.5439 13.797 94.6739 12.964 92.8549 12.964H88.1629V25ZM90.3049 14.732H92.0219C93.6369 14.732 94.4019 15.157 94.4019 16.228C94.4019 17.265 93.6369 17.86 92.2089 17.86H90.3049V14.732ZM90.3049 19.696H92.3109C94.0449 19.696 94.9119 20.138 94.9119 21.396C94.9119 22.977 93.3309 23.198 92.2259 23.198H90.3049V19.696ZM99.1698 25H107.449V23.096H101.312V19.696H106.837V17.894H101.312V14.834H107.143V12.964H99.1698V25ZM109.546 25H111.688V20.019H113.337C115.887 20.019 118.012 19.101 118.012 16.449C118.012 13.933 116.227 12.964 113.473 12.964H109.546V25ZM111.688 18.217V14.766H113.252C114.578 14.766 115.853 15.021 115.853 16.449C115.853 17.877 114.578 18.217 113.184 18.217H111.688ZM119.922 25H128.201V23.096H122.064V19.696H127.589V17.894H122.064V14.834H127.895V12.964H119.922V25ZM140.617 14.494C139.665 13.236 137.812 12.658 136.248 12.658C132.542 12.658 129.72 15.089 129.72 18.948C129.72 22.705 132.389 25.306 136.146 25.306C138.186 25.306 139.75 24.524 140.804 23.198L139.087 21.991C138.475 22.824 137.455 23.385 136.163 23.385C133.681 23.385 132.083 21.566 132.083 18.948C132.083 16.466 133.766 14.545 136.248 14.545C137.217 14.545 138.356 14.919 138.985 15.786L140.617 14.494ZM144.898 25H147.04V14.834H150.729V12.964H141.209V14.834H144.898V25ZM78.757 46H80.899V35.834H84.588V33.964H75.068V35.834H78.757V46ZM85.9881 46H94.2671V44.096H88.1301V40.696H93.6551V38.894H88.1301V35.834H93.9611V33.964H85.9881V46ZM96.5851 46.119C99.4751 46.119 100.58 43.552 100.58 37.687V35.834H104.66V46H106.802V33.964H98.5231V37.398C98.5231 42.6 97.7411 44.181 96.1091 44.181C95.8371 44.181 95.6331 44.147 95.3781 44.062L95.1571 45.949C95.4971 46.051 96.1431 46.119 96.5851 46.119ZM109.446 46H117.725V44.096H111.588V40.696H117.113V38.894H111.588V35.834H117.419V33.964H109.446V46ZM119.822 46H121.964V39.965H122.015L127.302 46H130.311L124.31 39.523L129.937 33.964H127.047L122.015 39.166H121.964V33.964H119.822V46ZM130.284 39.948C130.284 43.705 133.021 46.306 136.727 46.306C140.484 46.306 143.221 43.705 143.221 39.948C143.221 36.089 140.484 33.658 136.727 33.658C133.021 33.658 130.284 36.089 130.284 39.948ZM132.613 39.948C132.613 37.466 134.262 35.545 136.744 35.545C139.243 35.545 140.892 37.466 140.892 39.948C140.892 42.515 139.209 44.385 136.744 44.385C134.296 44.385 132.613 42.515 132.613 39.948ZM145.289 46H147.329V36.327H147.363L150.967 46H152.463L156.118 36.327H156.152V46H158.277V33.964H154.911L151.817 42.515H151.766L148.638 33.964H145.289V46Z" fill="white"/>
</svg>
