<svg width="15" height="17" viewBox="0 0 15 17" fill="none" xmlns="http://www.w3.org/2000/svg">
<path d="M0.0113697 16.3384L0.509381 12.7905C0.652781 11.7671 1.10759 10.806 1.81773 10.0257C2.52787 9.24547 3.46229 8.68018 4.50578 8.39955C3.69042 7.80381 3.09151 6.97983 2.79317 6.04334C2.49483 5.10685 2.51204 4.1049 2.84238 3.1782C3.17272 2.2515 3.79961 1.44661 4.63499 0.876578C5.47037 0.306544 6.47228 0 7.5 0C8.52772 0 9.52963 0.306544 10.365 0.876578C11.2004 1.44661 11.8273 2.2515 12.1576 3.1782C12.488 4.1049 12.5052 5.10685 12.2068 6.04334C11.9085 6.97983 11.3096 7.80381 10.4942 8.39955C11.5377 8.68018 12.4721 9.24547 13.1823 10.0257C13.8924 10.806 14.3472 11.7671 14.4906 12.7905L14.9948 16.3384C15.0062 16.4214 14.9988 16.5058 14.9731 16.5859C14.9473 16.666 14.9039 16.7398 14.8456 16.8025C14.7873 16.8652 14.7156 16.9153 14.6353 16.9494C14.5549 16.9834 14.4679 17.0007 14.3799 17H0.620051C0.532122 17.0007 0.445056 16.9834 0.364727 16.9494C0.284399 16.9153 0.212677 16.8652 0.154403 16.8025C0.0961285 16.7398 0.0526571 16.666 0.0269213 16.5859C0.00118637 16.5058 -0.00621319 16.4214 0.00522137 16.3384H0.0113697ZM11.1921 4.70529C11.1921 4.01053 10.9757 3.33137 10.5703 2.7537C10.165 2.17603 9.58886 1.72579 8.91479 1.45992C8.24071 1.19404 7.49898 1.12448 6.78339 1.26002C6.0678 1.39556 5.41048 1.73012 4.89457 2.22139C4.37866 2.71266 4.02732 3.33857 3.88498 4.01999C3.74264 4.7014 3.81569 5.4077 4.0949 6.04957C4.37411 6.69144 4.84694 7.24006 5.45359 7.62605C6.06024 8.01204 6.77346 8.21806 7.50307 8.21806C8.48145 8.21806 9.41976 7.84797 10.1116 7.18919C10.8034 6.53042 11.1921 5.63694 11.1921 4.70529ZM13.6821 15.8291L13.2794 12.9457C13.1416 11.9616 12.6334 11.0586 11.8492 10.4045C11.065 9.75035 10.0581 9.3895 9.01556 9.38898H5.99367C4.95059 9.38879 3.94293 9.74932 3.15807 10.4035C2.37322 11.0577 1.86458 11.9611 1.72674 12.9457L1.32096 15.8291H13.6821Z" fill="white"/>
</svg>
