<svg width="18" height="11" viewBox="0 0 18 11" fill="none" xmlns="http://www.w3.org/2000/svg">
<path d="M16.8747 10.9999H14.6246C14.2785 11.0008 13.9514 10.8339 13.7385 10.548L11.5447 7.61644C11.4462 7.48466 11.2789 7.43258 11.1277 7.48696C10.9767 7.5412 10.8749 7.68967 10.8744 7.85699V9.03554C10.8744 10.1209 9.86645 10.9999 8.62425 10.9999C8.13863 11.0045 7.66194 10.8631 7.25075 10.5923C4.10055 8.48065 1.96292 5.81423 0.106692 1.67951C-0.0568746 1.31467 -0.0310554 0.887527 0.175085 0.54714C0.381226 0.206752 0.739123 0.000447738 1.12394 1.61298e-05H3.37404C3.82423 -0.0011348 4.2317 0.278973 4.40997 0.712011L4.66308 1.33078C5.04556 2.2603 5.55905 3.1245 6.18668 3.89419C6.20714 3.91721 6.23626 3.92987 6.26633 3.92857C6.29394 3.93131 6.32154 3.92167 6.342 3.90196C6.3626 3.88239 6.37428 3.85448 6.37414 3.82542V2.28835C5.85941 2.09572 5.5515 1.54341 5.64393 0.97917C5.73635 0.414927 6.20261 0.00188638 6.7492 1.61298e-05H9.7493C10.3706 1.61298e-05 10.8744 0.527718 10.8744 1.17857V3.92857C10.8746 4.10395 10.9859 4.25788 11.147 4.30579C11.3081 4.3537 11.4799 4.28392 11.5682 4.13473L13.6635 0.564691C13.8666 0.212363 14.2317 -0.00214184 14.6246 1.61298e-05H16.8747C17.2904 0.000160024 17.6721 0.240561 17.8673 0.624971C18.0626 1.00938 18.0396 1.47537 17.8075 1.83661L15.4449 5.26912C15.3494 5.4068 15.3494 5.59311 15.4449 5.73079L17.7888 9.1338C18.0349 9.49289 18.0685 9.96607 17.8759 10.3594C17.6832 10.7527 17.2966 10.9999 16.8747 10.9999ZM11.2494 6.67843C11.5955 6.67772 11.9225 6.84446 12.1354 7.13032L14.3292 10.0619C14.4 10.1576 14.5089 10.2138 14.6246 10.2141H16.8747C17.0159 10.2147 17.1454 10.1319 17.2096 10.0003C17.2741 9.86853 17.2622 9.71027 17.1793 9.59043L14.8355 6.18742C14.5515 5.77553 14.5515 5.21949 14.8355 4.8076L17.1934 1.38487C17.2305 1.32301 17.25 1.25151 17.2496 1.17857C17.2496 0.961619 17.0818 0.78567 16.8747 0.78567H14.6246C14.4945 0.785814 14.3739 0.856452 14.3058 0.972265L12.2104 4.54231C11.948 4.99376 11.4308 5.20711 10.9451 5.06411C10.4593 4.92125 10.124 4.45699 10.1244 3.92857V1.17857C10.1244 0.961619 9.9564 0.78567 9.7493 0.78567H6.7492C6.54196 0.78567 6.37414 0.961619 6.37414 1.17857C6.37414 1.39552 6.54196 1.57147 6.7492 1.57147H7.12413V3.82542C7.11987 4.19818 6.89643 4.5295 6.56229 4.65826C6.22829 4.78688 5.85309 4.68603 5.61934 4.40491C4.94379 3.5761 4.3906 2.64586 3.97873 1.64513L3.72082 1.02636C3.66217 0.88019 3.52539 0.785239 3.37404 0.78567H1.12394C0.99594 0.786389 0.877145 0.855445 0.808752 0.968812C0.740359 1.08218 0.731981 1.22417 0.786366 1.3456C2.60057 5.38695 4.59276 7.8767 7.6585 9.93427C7.94897 10.1206 8.28365 10.2177 8.62425 10.2141C9.44922 10.2141 10.1244 9.6838 10.1244 9.03554V7.85699C10.1244 7.20614 10.628 6.67843 11.2494 6.67843V6.67843Z" fill="#FC3F3F"/>
</svg>
